<?xml version="1.0" encoding="utf-8"?>
<!-- Generator: Adobe Illustrator 25.0.0, SVG Export Plug-In . SVG Version: 6.00 Build 0)  -->
<svg version="1.1" baseProfile="tiny" id="Layer_1" xmlns="http://www.w3.org/2000/svg" xmlns:xlink="http://www.w3.org/1999/xlink"
	 x="0px" y="0px" viewBox="0 0 1625 379" overflow="visible" xml:space="preserve">
<g>
	<path fill="#0F4229" d="M318.88,244.79c-6.84-17.96-19.45-28.12-24.08-31.76c-5.97-4.69-12.18-8.1-18.96-11.82
		c-6.29-3.45-11.73-6-15.67-7.74c4.26-3.08,9.97-7.72,15.8-14.27c4.89-5.5,11.16-12.69,15.36-23.84c1.82-4.83,4.06-12.56,4.15-22.58
		c-0.16-6.49-1.46-14.14-5.39-21.71c-13.03-25.15-48.37-29.59-57.1-30.33c-2.95-0.25-10.97-0.17-27.01-0.01
		c-11.62,0.12-21.17,0.36-27.56,0.55c-2.64,4.08-5.28,8.16-7.92,12.25c2.14,44.1,3.87,59.7,5.19,63.53
		c0.25,0.71,1.55,4.12,1.11,8.51c-0.22,2.21-0.82,3.96-1.26,5.04c1.19,0.89,2.45,2.16,3.06,3.96c0.66,1.95,0.27,3.69,0.18,4.14
		c-1.42,7.21,0.64,59.93-1.08,59.97c-0.96,0.02-1.99-16.2-2.88-28.81c-0.98-13.78-1.33-25.52-1.44-34.4
		c-3.17-0.36-6.93-0.57-11.17-0.36c-4.19,0.21-7.89,0.78-10.99,1.44c1.11,6.21,2.54,14.99,3.78,25.57
		c2.07,17.69,2.51,31.04,3.08,49.7c0.33,10.83,0.61,24.89,0.52,41.43c-1.84-5.8-3.6-11.99-5.22-18.55
		c-2.08-8.44-3.66-16.45-4.86-23.95c-3.3,0.38-6.99,1-10.99,1.98c-3.68,0.91-6.99,1.97-9.9,3.06c1,2.24,2.43,5.59,3.96,9.72
		c5.12,13.78,6.5,23.09,9.54,37.64c4.66,22.27,7.93,31.65,7.2,31.88c-1.12,0.35-9.23-21.89-15.49-41.24
		c-5.38-16.65-9.15-30.9-11.71-41.42c-0.95-0.21-3.77-0.69-6.84,0.72c-2.38,1.09-3.74,2.77-4.32,3.6c0.89,1.67,1.76,3.42,2.6,5.25
		c2.96,6.43,4.99,12.58,6.4,18.16c-1.59-1.65-4.13-3.89-7.74-5.58c-1.92-0.9-3.49-1.34-6.54-2.1c-3.27-0.81-7.64-1.85-12.91-2.94
		c3.02,3.33,7.29,7.33,13.02,10.93c3.25,2.04,6.36,3.58,9.13,4.74c-2.58,0.43-6.38,1.37-10.45,3.6c-3.82,2.1-6.19,4.41-10.09,8.28
		c-2.49,2.47-5.73,5.94-9.18,10.45c5.09-1.54,9.33-3.15,12.61-4.5c6.08-2.51,10.33-4.27,15.13-7.74c4.21-3.05,7.27-6.27,9.36-8.82
		c3.19,8.87,6.29,18.36,9.18,28.45c2.28,7.96,4.24,15.65,5.94,23.05c-0.95-0.01-2.44,0.09-4.14,0.72c-1.58,0.58-2.72,1.39-3.42,1.98
		c0.16,0.47,0.54,1.39,1.44,2.16c1.63,1.38,3.62,1.13,3.96,1.08c24.81-1.57,42.21-1.13,53.85-0.36c2.67,0.18,7.91,0.56,15.49,0.9
		c14.09,0.63,25.62,0.64,33.32,0.54c5.8-0.22,13.65-0.93,22.69-3.06c6.79-1.6,16.13-3.8,26.25-9.62
		c4.93-2.83,20.26-11.93,29.84-31.05c6.25-12.45,7.52-24.09,7.66-31.38C323.4,258.53,320.84,249.92,318.88,244.79z M200.56,97.65
		c0.08-0.36,0.36-1.34,1.26-2.16c0.94-0.86,1.98-1.04,2.34-1.08c2.52-0.37,5.57-0.63,9-0.54c3.15,0.09,5.94,0.45,8.28,0.9
		c5.82,1,10.31,2.95,13.63,4.86c22.75,13.13,24.08,44.41,24.19,48.26c0.09,2.01,0.93,29.61-17.72,40.56
		c-2.68,1.58-6.5,3.24-11.63,3.92c-3.4,0.39-7.18,0.65-11.29,0.66c-5.39,0.01-10.25-0.41-14.47-1.02c-0.31-0.03-1.94-0.21-3.06-1.62
		c-0.74-0.93-0.87-1.92-0.9-2.34C200.32,157.92,200.44,127.79,200.56,97.65z M265.36,321.34c-11.87,9.16-25.31,8.92-28.84,8.61
		c-15.77-0.67-27.98-3.27-33.38-12.65c-1.08-1.87-2.12-4.42-2.53-7.8c-0.17-13.61-1.15-93.73-0.44-100.39
		c0.15-1.39,0.64-1.99,0.85-2.24c1.57-1.8,4.1-0.69,12.05-0.71c2.92-0.01,3.11,0.18,6.04,0.28c1.39,0.05,5.4,0.14,10.64,1.22
		c6.21,1.62,13,4.68,20,9.69c28.82,20.63,30.72,58.06,30.95,64.71C280.86,283.24,283.58,307.28,265.36,321.34z"/>
	<path fill="#0F4229" d="M145.46,243.17c-1.73-6.04-5.14-17.95-10-35.04c-4.18-14.68-6.61-23.34-8.76-35.65
		c-0.95-5.47-1.57-10.03-1.95-13.18c-2.76-0.06-6.3,0.11-10.33,0.96c-4.39,0.93-7.95,2.37-10.57,3.66c1.05,2.3,2.61,5.83,4.25,10.25
		c1.12,3,3.84,10.59,7.87,28.71c1.13,5.07,2.58,11.99,4.08,20.29c-8.94-10.69-17.89-21.37-26.83-32.06
		c-1.02-3.24-2.04-6.48-3.06-9.72c2.04-2.16,3.34-4.24,4.18-5.88c1.5-2.91,2.06-5.42,3.02-9.85c0.61-2.79,1-5.22,1.26-7.14
		c-1.63,1.59-3.53,3.72-5.34,6.42c-2.02,3.02-3.34,5.87-4.2,8.16c-0.22,0.89-0.41,1.93-0.48,3.12c-0.14,2.23,0.19,4.11,0.54,5.46
		c0.78,2.54,1.56,5.08,2.34,7.62c-2.78-3.1-5.56-6.2-8.34-9.3c-1.14-1.35-2.83-3.05-5.23-4.53c-4.69-2.89-9.32-3.22-11.58-3.22
		c-3.78,0.13-7.94,0.44-12.4,1.05c-3.94,0.54-7.58,1.24-10.89,2.01c2.71,1.64,6.35,3.51,10.87,4.98c4.41,1.43,8.36,2.07,11.47,2.34
		c2.16,0.38,5.16,0.67,8.7,0.3c3.31-0.35,6.02-1.17,7.98-1.92c3.82,4.68,7.64,9.36,11.47,14.05c-12.57-2.59-18.94-4.58-22.45-5.94
		c-0.93-0.36-3.79-1.51-7.8-2.34c-3.01-0.62-5.51-0.82-7.08-0.9c-3.13,0.18-7.85,0.79-13.1,2.92c-6.47,2.62-10.62,6.27-17.99,12.87
		c-3.05,2.73-7.14,6.6-11.71,11.59c3.98-0.71,7.29-1.47,9.78-2.1c2.56-0.65,4.62-1.24,6.12-1.68c1.37-0.4,4.06-1.19,7.01-2.17
		c2.96-0.99,6.91-2.44,11.6-4.49c3.1-1.24,5.44-2.52,6.96-3.42c4.25-2.52,5.65-4.21,9.36-6c2.8-1.35,5.29-1.97,6.84-2.28
		c7.3,2.04,14.61,4.08,21.91,6.12c1.09,0.63,2.24,1.39,3.42,2.28c2.61,1.97,4.59,4.06,6.06,5.88c-9.63,0.02-19.25,0.03-28.88,0.05
		c-2.33,0.07-5.7,0.42-9.48,1.75c-3.32,1.17-9.14,3.87-19.09,16.21c-4.17,5.18-9.48,12.56-14.53,22.21
		c6.65-3.13,13.93-7.07,21.52-12.03c4.6-3.01,8.79-6.06,12.58-9.04c2.49-2.2,5.69-5.55,8.4-10.27c1.53-2.65,2.57-5.16,3.3-7.32
		c8.36,0.04,16.73,0.08,25.09,0.12c-4.96,4.72-9.92,9.44-14.89,14.17c-1.25,1.64-2.84,4.09-4.05,7.33c-1.31,3.5-1.68,6.61-1.78,8.76
		c0.01,3.37,0.21,7.11,0.72,11.17c0.71,5.65,1.87,10.63,3.12,14.83c1.72-3.78,3.51-8.57,4.77-14.26c0.95-4.28,1.4-8.19,1.59-11.55
		c0.16-2.56,0.17-5.54-0.12-8.82c-0.25-2.88-0.7-5.48-1.2-7.74c4.64-4.64,9.28-9.28,13.93-13.93c5.86,7.1,11.73,14.21,17.59,21.31
		c0.89,2.56,1.42,4.69,1.74,6.12c0.8,3.6,0.78,5.3,1.66,8.7c0.59,2.27,1.25,4.05,1.7,5.17c1.7,0.1,3.64,0.11,5.76-0.06
		c1.62-0.13,3.1-0.35,4.44-0.6c1.48-0.42,3.25-1.05,5.16-2.04C143.1,244.82,144.4,243.96,145.46,243.17z"/>
	<path fill="#0F4229" d="M162.8,170.23c1.37-0.03,3.19-0.21,5.22-0.84c1.28-0.4,2.37-0.89,3.26-1.36
		c-1.42-13.82-2.66-28.06-3.68-42.7c-0.81-11.64-1.44-23.05-1.92-34.22c3.34-4.7,6.67-9.39,10.01-14.09c2,0.36,4.37,0.63,7.04,0.64
		c1.94,0.01,3.71-0.12,5.28-0.32c4.5-0.83,9.94-2.23,15.85-4.64c4.38-1.79,8.14-3.78,11.29-5.68c-3.21-0.34-6.52-0.64-9.92-0.88
		c-3.51-0.25-6.93-0.44-10.25-0.56c-2.23-0.1-7.9-0.04-13.53,3.6c-3.41,2.21-5.5,4.89-6.64,6.64c-0.53,0.75-1.07,1.49-1.6,2.24
		c0-1.99-0.1-4.22-0.4-6.64c-0.24-1.98-0.58-3.8-0.96-5.44c-0.75-3.13-2-7.05-4.16-11.29c-1.69-3.31-3.53-6.02-5.2-8.16
		c-0.27,3.83-0.31,8.27,0.13,13.19c0.31,3.43,0.81,6.57,1.39,9.38c0.45,1.43,1.33,3.65,3.12,5.92c1.74,2.2,3.62,3.55,4.88,4.32
		c-2.13,3.07-4.27,6.14-6.4,9.2c-0.13-0.78-0.24-1.59-0.34-2.42c-0.3-2.61-0.37-5.05-0.3-7.26c-3.67-0.52-8.28-0.79-13.51-0.18
		c-2.33,0.27-4.47,0.68-6.39,1.15c-0.24,0.23-0.78,0.8-0.99,1.73c-0.28,1.2,0.18,2.16,0.32,2.42c0.54,2.04,1.03,4.18,1.47,6.42
		c1.4,7.21,1.9,13.88,1.9,19.76c-6.51-12.33-13.02-24.65-19.53-36.98c-0.37-3.95-0.75-7.9-1.12-11.85c0.8-0.48,1.67-1.07,2.56-1.8
		c1.78-1.47,3.05-3.01,3.92-4.28c1.35-1.86,2.78-4.09,4.12-6.7c1.77-3.45,2.94-6.67,3.73-9.38c-2.07,1.24-4.49,2.92-6.96,5.18
		c-1.92,1.75-3.48,3.49-4.72,5.06c-0.75,1-1.58,2.29-2.31,3.88c-0.59,1.27-1,2.46-1.29,3.49c-0.04,0.59-0.07,1.21-0.08,1.86
		c-0.01,0.99,0.02,1.92,0.08,2.78c0.24,3.01,0.48,6.03,0.72,9.04c-2.59-4.94-5.18-9.87-7.76-14.81c-1.1-1.44-2.72-3.25-4.96-4.96
		c-2.8-2.14-5.5-3.33-7.44-4c-2.71-0.69-5.68-1.3-8.88-1.76c-7.16-1.02-13.57-0.99-18.89-0.56c3.89,2.82,8.55,5.74,14.01,8.4
		c2.46,1.2,4.84,2.23,7.12,3.12c1.97,0.98,4.79,2.11,8.34,2.74c4.02,0.71,7.43,0.48,9.75,0.15c3.09,5.79,6.19,11.58,9.28,17.37
		c-7.34-3.66-14.67-7.31-22.01-10.97c-2.03-1.67-5.26-3.91-9.68-5.52c-5.11-1.87-9.61-2.08-12.41-2c-2.29-0.05-5.56,0.06-9.39,0.78
		c-2.82,0.53-7.73,1.74-17.74,7.24c-4.71,2.59-10.78,6.25-17.53,11.27c6.65-0.3,12.07-0.38,15.85-0.4c5.68-0.03,8.79,0.09,13.4-0.45
		c4.82-0.56,8.71-1.53,11.26-2.28c2.5-0.85,5.12-1.83,7.84-2.96c3.07-1.28,5.93-2.6,8.56-3.92c1.33-0.19,2.86-0.32,4.56-0.32
		c1.9,0,3.6,0.17,5.04,0.4c5.66,2.55,10.23,5.09,13.61,7.12c6.98,4.2,9.28,6.5,10.62,8.01c2.51,2.83,4.05,5.61,4.99,7.6
		c-9.9-2.29-19.8-4.59-29.69-6.88c-1.39-0.49-3.36-1.01-5.76-1.12c-3.06-0.14-5.54,0.45-7.12,0.96c-3.43,0.99-8.31,2.7-13.69,5.76
		c-7.11,4.05-11.67,8.5-16.37,13.16c-3.27,3.25-7.5,7.82-11.88,13.81c9.88-2.47,17.94-5.2,23.8-7.4
		c15.01-5.63,20.1-9.45,21.81-10.79c5.53-4.33,9.18-8.94,11.39-12.14c8.06,1.73,16.11,3.47,24.17,5.2
		c-5.63,3.66-11.26,7.31-16.89,10.97c-1.44,0.64-3.21,1.63-4.96,3.2c-4.29,3.84-5.63,8.63-6.08,10.73
		c-1.09,4.96-2.01,10.77-2.4,17.29c-0.3,4.93-0.24,9.47,0,13.53c2.59-3.71,5.34-8.16,7.92-13.37c2.34-4.72,4.11-9.16,5.44-13.13
		c0.44-1.64,0.83-3.43,1.12-5.36c0.72-4.74,0.66-8.96,0.32-12.41c5.63-3.66,11.26-7.31,16.89-10.97c1.04,0.08,2.08,0.16,3.12,0.24
		c0.74,1.51,1.48,3.03,2.24,4.55c3.61,7.28,7.27,14.41,10.97,21.39c0.64,7.15,1.18,14.52,1.6,22.09c0.53,9.48,0.84,18.66,0.96,27.53
		c0.01,0.35,0.08,1.02,0.48,1.72c0.57,1,1.45,1.43,1.76,1.56c1.28,0.16,2.66,0.29,4.12,0.36
		C159.49,170.32,161.22,170.31,162.8,170.23z"/>
	<path fill="#0F4229" d="M178.01,66.22c-0.77-1.14-1.86-3.05-2.47-5.62c-0.59-2.5-0.5-4.63-0.33-5.98
		c0.35-2.85,1.02-6.33,2.32-10.17c1.64-4.82,3.77-8.65,5.6-11.45c0.86,4.41,1.46,10.1,0.88,16.65c-0.25,2.81-0.68,5.38-1.2,7.68
		c-0.62,1.97-1.6,4.31-3.2,6.72C179.09,64.85,178.55,65.57,178.01,66.22z"/>
</g>
<g>
	<g>
		<path fill="#0F4229" d="M364.43,124.35c0-5.67-0.07-10.63-0.2-14.86c-0.13-4.24-0.33-7.91-0.6-11.01
			c-0.27-3.1-0.58-5.69-0.95-7.76c-0.37-2.07-0.75-3.8-1.15-5.21v-0.4c1.33,0.07,2.74,0.1,4.2,0.1c1.27,0.07,2.69,0.1,4.25,0.1
			c1.57,0,3.19,0,4.85,0c2.4,0,5.66-0.23,9.76-0.7c4.1-0.47,9.39-0.7,15.87-0.7c6.01,0,11.54,0.79,16.62,2.35
			c5.07,1.57,9.46,3.82,13.16,6.76c3.7,2.94,6.61,6.56,8.71,10.86c2.1,4.3,3.15,9.19,3.15,14.66c0,4.6-0.63,8.73-1.9,12.36
			c-1.27,3.64-3.05,6.81-5.35,9.51c-2.3,2.7-5.07,4.97-8.31,6.81c-3.24,1.84-6.79,3.29-10.66,4.35c5.67,0.87,10.84,2.32,15.52,4.35
			c4.67,2.04,8.69,4.59,12.06,7.66c3.37,3.07,5.97,6.66,7.81,10.76c1.83,4.1,2.75,8.66,2.75,13.66c0,14.08-4.64,24.64-13.91,31.68
			c-9.28,7.04-23.16,10.56-41.64,10.56c-2,0-4.34-0.08-7.01-0.25c-2.67-0.17-5.39-0.35-8.16-0.55c-2.77-0.2-5.49-0.38-8.16-0.55
			c-2.67-0.17-5-0.25-7.01-0.25h-6.61v-0.4c0.4-1.4,0.78-3.14,1.15-5.21c0.37-2.07,0.68-4.64,0.95-7.71
			c0.27-3.07,0.47-6.72,0.6-10.96c0.13-4.24,0.2-9.19,0.2-14.86V124.35z M382.65,150.18c1.87,0.2,3.54,0.32,5,0.35
			c1.47,0.03,3.04,0.05,4.7,0.05c4.54,0,8.67-0.65,12.41-1.95c3.74-1.3,6.92-3.25,9.56-5.86c2.64-2.6,4.69-5.86,6.16-9.76
			c1.47-3.9,2.2-8.46,2.2-13.66c0-4.34-0.53-8.27-1.6-11.81c-1.07-3.54-2.65-6.56-4.75-9.06c-2.1-2.5-4.69-4.42-7.76-5.76
			c-3.07-1.33-6.57-2-10.51-2c-2.54,0-4.75,0.1-6.66,0.3c-1.9,0.2-3.52,0.43-4.85,0.7c-1.54,0.27-2.84,0.6-3.9,1V150.18z
			 M401.17,157.68c-4.54,0-8.34,0.17-11.41,0.5c-3.07,0.33-5.44,0.67-7.11,1v30.33c0,7.81,0.13,14.25,0.4,19.32
			c0.27,5.07,0.63,9.21,1.1,12.41c2.54,0.33,5.07,0.63,7.61,0.9c2.54,0.27,4.57,0.4,6.11,0.4c12.48,0,21.6-2.79,27.38-8.36
			c5.77-5.57,8.66-14.13,8.66-25.68c0-4.54-0.69-8.69-2.05-12.46c-1.37-3.77-3.4-7.02-6.11-9.76c-2.7-2.74-6.11-4.85-10.21-6.36
			C411.43,158.43,406.64,157.68,401.17,157.68z"/>
		<path fill="#0F4229" d="M469.64,199.12c0-5.27,1.08-9.84,3.25-13.71c2.17-3.87,5.06-7.17,8.66-9.91c3.6-2.74,7.71-4.95,12.31-6.66
			c4.6-1.7,9.38-3.04,14.31-4c4.94-0.97,9.81-1.63,14.61-2c4.8-0.37,9.21-0.58,13.21-0.65v-5.1c0-4.4-0.57-8.21-1.7-11.41
			c-1.14-3.2-2.74-5.86-4.8-7.96c-2.07-2.1-4.55-3.67-7.46-4.71c-2.9-1.03-6.09-1.55-9.56-1.55c-2.4,0-4.77,0.2-7.11,0.6
			c-2.34,0.4-4.75,1.07-7.26,2c-2.5,0.94-5.14,2.2-7.91,3.8c-2.77,1.6-5.76,3.64-8.96,6.11l-1-0.6l6.81-14.11
			c2.2-1,4.37-1.82,6.51-2.45c2.13-0.63,4.3-1.15,6.51-1.55s4.45-0.68,6.76-0.85c2.3-0.17,4.72-0.25,7.26-0.25
			c7.01,0,13,0.85,17.97,2.55c4.97,1.7,9.04,4.04,12.21,7.01c3.17,2.97,5.49,6.44,6.96,10.41c1.47,3.97,2.2,8.23,2.2,12.76v32.63
			c0,5.67,0.08,10.63,0.25,14.86c0.17,4.24,0.37,7.89,0.6,10.96c0.23,3.07,0.53,5.64,0.9,7.71c0.37,2.07,0.75,3.8,1.15,5.21v0.4
			H534.2v-0.4c0.33-1.07,0.58-2.27,0.75-3.6c0.17-1.33,0.32-2.94,0.45-4.8c-1.4,1.2-3.05,2.44-4.95,3.7
			c-1.9,1.27-4.07,2.42-6.51,3.45c-2.44,1.04-5.14,1.87-8.11,2.5c-2.97,0.63-6.22,0.95-9.76,0.95c-11.61,0-20.59-2.72-26.93-8.16
			C472.81,216.86,469.64,209.13,469.64,199.12z M536,170c-6.07,0.07-11.91,0.42-17.52,1.05c-5.61,0.64-10.56,1.95-14.86,3.95
			c-4.3,2-7.74,4.85-10.31,8.56c-2.57,3.7-3.85,8.63-3.85,14.76c0,7.88,1.97,13.88,5.91,18.02c3.94,4.14,9.38,6.21,16.32,6.21
			c3.2,0,6.12-0.45,8.76-1.35c2.64-0.9,4.97-2.04,7.01-3.4c2.03-1.37,3.75-2.87,5.15-4.5c1.4-1.63,2.47-3.22,3.2-4.75
			c0.13-2.54,0.2-5.35,0.2-8.46c0-3.1,0-6.62,0-10.56V170z"/>
		<path fill="#0F4229" d="M650.41,161.19c0-4.4-0.45-8.21-1.35-11.41c-0.9-3.2-2.2-5.86-3.9-7.96c-1.7-2.1-3.75-3.67-6.16-4.7
			c-2.4-1.03-5.07-1.55-8.01-1.55c-2,0-4.24,0.4-6.71,1.2c-2.47,0.8-5.02,1.89-7.66,3.25c-2.64,1.37-5.27,2.95-7.91,4.75
			c-2.64,1.8-5.12,3.74-7.46,5.81c-0.13,2.14-0.2,4.42-0.2,6.86c0,2.44,0,5.06,0,7.86v24.22c0,5.67,0.07,10.63,0.2,14.86
			c0.13,4.24,0.33,7.89,0.6,10.96c0.27,3.07,0.57,5.64,0.9,7.71c0.33,2.07,0.7,3.8,1.1,5.21v0.4h-23.12v-0.4
			c0.4-1.4,0.78-3.14,1.15-5.21c0.37-2.07,0.67-4.64,0.9-7.71c0.23-3.07,0.43-6.72,0.6-10.96c0.17-4.24,0.25-9.19,0.25-14.86v-24.22
			c0-5.67-0.08-10.63-0.25-14.86c-0.17-4.24-0.37-7.89-0.6-10.96c-0.23-3.07-0.54-5.64-0.9-7.71c-0.37-2.07-0.75-3.8-1.15-5.21v-0.4
			h23.12v0.4c-0.53,1.54-0.95,3.49-1.25,5.86c-0.3,2.37-0.62,5.36-0.95,8.96c2.67-2.13,5.54-4.24,8.61-6.31
			c3.07-2.07,6.22-3.9,9.46-5.51c3.24-1.6,6.49-2.9,9.76-3.9c3.27-1,6.51-1.5,9.71-1.5c3.8,0,7.17,0.5,10.11,1.5
			c2.94,1,5.51,2.37,7.71,4.1c2.2,1.74,4.05,3.77,5.56,6.11c1.5,2.34,2.65,4.84,3.45,7.51c2.74-2.33,5.72-4.65,8.96-6.96
			c3.24-2.3,6.57-4.35,10.01-6.16c3.44-1.8,6.94-3.27,10.51-4.4c3.57-1.13,7.06-1.7,10.46-1.7c5.21,0,9.62,0.9,13.26,2.7
			c3.64,1.8,6.61,4.17,8.91,7.11c2.3,2.94,3.97,6.29,5,10.06c1.03,3.77,1.55,7.59,1.55,11.46v34.03c0,5.67,0.07,10.63,0.2,14.86
			c0.13,4.24,0.33,7.89,0.6,10.96c0.27,3.07,0.58,5.64,0.95,7.71c0.37,2.07,0.75,3.8,1.15,5.21v0.4h-23.22v-0.4
			c0.4-1.4,0.78-3.14,1.15-5.21c0.37-2.07,0.68-4.64,0.95-7.71c0.27-3.07,0.47-6.72,0.6-10.96c0.13-4.24,0.2-9.19,0.2-14.86v-28.33
			c0-8.81-1.77-15.28-5.31-19.42c-3.54-4.14-8.28-6.21-14.21-6.21c-2.07,0-4.35,0.4-6.86,1.2c-2.5,0.8-5.09,1.9-7.76,3.3
			c-2.67,1.4-5.34,3.02-8.01,4.85c-2.67,1.84-5.17,3.79-7.51,5.86c0.13,0.8,0.2,1.6,0.2,2.4s0,1.57,0,2.3v34.03
			c0,5.67,0.08,10.63,0.25,14.86c0.17,4.24,0.37,7.89,0.6,10.96c0.23,3.07,0.53,5.64,0.9,7.71c0.37,2.07,0.75,3.8,1.15,5.21v0.4
			h-23.12v-0.4c0.4-1.4,0.77-3.14,1.1-5.21c0.33-2.07,0.63-4.64,0.9-7.71c0.27-3.07,0.47-6.72,0.6-10.96
			c0.13-4.24,0.2-9.19,0.2-14.86V161.19z"/>
		<path fill="#0F4229" d="M782.24,131.26c4.2-2.27,8.71-3.99,13.51-5.15c4.8-1.17,9.71-1.75,14.71-1.75
			c7.41,0,14.26,1.25,20.57,3.75c6.31,2.5,11.76,6.06,16.37,10.66s8.21,10.21,10.81,16.82s3.9,14.01,3.9,22.22
			c0,6.87-1.19,13.48-3.55,19.82c-2.37,6.34-5.91,11.95-10.61,16.82c-4.7,4.87-10.54,8.76-17.52,11.66
			c-6.97,2.9-15.06,4.35-24.27,4.35c-1.07,0-2.49-0.03-4.25-0.1c-1.77-0.07-3.72-0.2-5.86-0.4c-2.14-0.2-4.4-0.47-6.81-0.8
			c-2.4-0.33-4.74-0.77-7.01-1.3c-3.2-0.73-6.42-1.55-9.66-2.45c-3.24-0.9-6.32-1.92-9.26-3.05c0.27-1,0.5-2.69,0.7-5.06
			c0.2-2.37,0.35-4.92,0.45-7.66c0.1-2.74,0.18-5.42,0.25-8.06c0.07-2.64,0.1-4.75,0.1-6.36v-77.08c0-5.67-0.08-10.63-0.25-14.86
			c-0.17-4.24-0.37-7.89-0.6-10.96c-0.23-3.07-0.54-5.64-0.9-7.71c-0.37-2.07-0.75-3.8-1.15-5.21v-0.4h23.12v0.4
			c-0.4,1.4-0.77,3.14-1.1,5.21c-0.33,2.07-0.63,4.64-0.9,7.71c-0.27,3.07-0.47,6.72-0.6,10.96c-0.13,4.24-0.2,9.19-0.2,14.86
			V131.26z M782.24,193.62c0,5.41,0.05,9.88,0.15,13.41c0.1,3.54,0.25,6.37,0.45,8.51c2.8,2.14,6.61,3.94,11.41,5.41
			c4.8,1.47,10.08,2.2,15.82,2.2c4.74,0,9.07-0.93,13.01-2.8c3.94-1.87,7.31-4.57,10.11-8.11c2.8-3.54,4.99-7.84,6.56-12.91
			c1.57-5.07,2.35-10.81,2.35-17.22c0-7.21-0.67-13.9-2-20.07c-1.34-6.17-3.4-11.51-6.21-16.02c-2.8-4.5-6.37-8.02-10.71-10.56
			c-4.34-2.54-9.51-3.8-15.52-3.8c-5.07,0-9.81,1.04-14.21,3.1c-4.4,2.07-8.14,5.07-11.21,9.01V193.62z"/>
		<path fill="#0F4229" d="M876.13,177.2c0-7.54,1.4-14.53,4.2-20.97c2.8-6.44,6.66-12.03,11.56-16.77
			c4.9-4.74,10.69-8.44,17.37-11.11c6.67-2.67,13.85-4,21.52-4c7.54,0,14.63,1.25,21.27,3.75c6.64,2.5,12.43,6.06,17.37,10.66
			c4.94,4.6,8.82,10.21,11.66,16.82c2.84,6.61,4.25,14.01,4.25,22.22c0,6.87-1.2,13.48-3.6,19.82c-2.4,6.34-5.94,11.95-10.61,16.82
			c-4.67,4.87-10.39,8.76-17.17,11.66c-6.77,2.9-14.56,4.35-23.37,4.35c-7.47,0-14.51-1.24-21.12-3.7s-12.38-6.01-17.32-10.61
			c-4.94-4.6-8.84-10.19-11.71-16.77C877.57,192.8,876.13,185.41,876.13,177.2z M932.89,223.15c4.74,0,9.09-0.93,13.06-2.8
			c3.97-1.87,7.39-4.57,10.26-8.11c2.87-3.54,5.1-7.84,6.71-12.91c1.6-5.07,2.4-10.81,2.4-17.22c0-7.21-0.77-13.9-2.3-20.07
			c-1.54-6.17-3.82-11.51-6.86-16.02c-3.04-4.5-6.86-8.02-11.46-10.56c-4.6-2.54-9.98-3.8-16.12-3.8c-4.74,0-9.08,0.92-13.01,2.75
			c-3.94,1.84-7.36,4.49-10.26,7.96c-2.9,3.47-5.16,7.72-6.76,12.76c-1.6,5.04-2.4,10.76-2.4,17.17c0,7.21,0.78,13.91,2.35,20.12
			c1.57,6.21,3.89,11.6,6.96,16.17c3.07,4.57,6.89,8.14,11.46,10.71C921.49,221.86,926.82,223.15,932.89,223.15z"/>
		<path fill="#0F4229" d="M999.35,177.2c0-7.54,1.4-14.53,4.2-20.97c2.8-6.44,6.66-12.03,11.56-16.77
			c4.9-4.74,10.69-8.44,17.37-11.11c6.67-2.67,13.85-4,21.52-4c7.54,0,14.63,1.25,21.27,3.75c6.64,2.5,12.43,6.06,17.37,10.66
			c4.94,4.6,8.82,10.21,11.66,16.82c2.84,6.61,4.25,14.01,4.25,22.22c0,6.87-1.2,13.48-3.6,19.82c-2.4,6.34-5.94,11.95-10.61,16.82
			c-4.67,4.87-10.39,8.76-17.17,11.66c-6.77,2.9-14.56,4.35-23.37,4.35c-7.47,0-14.51-1.24-21.12-3.7
			c-6.61-2.47-12.38-6.01-17.32-10.61c-4.94-4.6-8.84-10.19-11.71-16.77C1000.79,192.8,999.35,185.41,999.35,177.2z M1056.11,223.15
			c4.74,0,9.09-0.93,13.06-2.8c3.97-1.87,7.39-4.57,10.26-8.11c2.87-3.54,5.1-7.84,6.71-12.91c1.6-5.07,2.4-10.81,2.4-17.22
			c0-7.21-0.77-13.9-2.3-20.07c-1.54-6.17-3.82-11.51-6.86-16.02c-3.04-4.5-6.86-8.02-11.46-10.56c-4.61-2.54-9.98-3.8-16.12-3.8
			c-4.74,0-9.08,0.92-13.01,2.75c-3.94,1.84-7.36,4.49-10.26,7.96c-2.9,3.47-5.16,7.72-6.76,12.76c-1.6,5.04-2.4,10.76-2.4,17.17
			c0,7.21,0.78,13.91,2.35,20.12c1.57,6.21,3.89,11.6,6.96,16.17c3.07,4.57,6.89,8.14,11.46,10.71
			C1044.71,221.86,1050.04,223.15,1056.11,223.15z"/>
		<path fill="#0F4229" d="M1251.2,107.94h-2.2c-0.54-1.53-1.39-3.27-2.55-5.21c-1.17-1.93-2.7-3.75-4.6-5.46
			c-1.9-1.7-4.2-3.12-6.91-4.25c-2.7-1.13-5.89-1.7-9.56-1.7c-3.27,0-6.17,0.5-8.71,1.5c-2.54,1-4.65,2.4-6.36,4.2
			c-1.7,1.8-2.99,3.94-3.85,6.41c-0.87,2.47-1.3,5.21-1.3,8.21c0,4.8,1.35,9.39,4.05,13.76c2.7,4.37,6.09,8.69,10.16,12.96
			c4.07,4.27,8.47,8.54,13.21,12.81c4.74,4.27,9.14,8.71,13.21,13.31c4.07,4.6,7.46,9.43,10.16,14.46
			c2.7,5.04,4.05,10.46,4.05,16.27c0,4.34-0.75,8.69-2.25,13.06c-1.5,4.37-3.82,8.29-6.96,11.76c-3.14,3.47-7.17,6.29-12.11,8.46
			c-4.94,2.17-10.81,3.25-17.62,3.25c-3.8,0-7.42-0.35-10.86-1.05c-3.44-0.7-6.61-1.57-9.51-2.6c-2.9-1.03-5.5-2.15-7.81-3.35
			c-2.3-1.2-4.19-2.3-5.66-3.3l2.3-22.12h2.5c0.73,3.14,1.93,6.12,3.6,8.96c1.67,2.84,3.72,5.34,6.16,7.51
			c2.43,2.17,5.22,3.9,8.36,5.21c3.14,1.3,6.57,1.95,10.31,1.95c3.4,0,6.46-0.52,9.16-1.55c2.7-1.03,5.02-2.47,6.96-4.3
			c1.93-1.83,3.42-4.02,4.45-6.56c1.03-2.54,1.55-5.31,1.55-8.31c0-4.2-0.77-8.09-2.3-11.66c-1.54-3.57-3.55-6.96-6.06-10.16
			c-2.5-3.2-5.34-6.31-8.51-9.31c-3.17-3-6.42-6.02-9.76-9.06c-3.34-3.04-6.59-6.16-9.76-9.36c-3.17-3.2-6.01-6.62-8.51-10.26
			c-2.5-3.64-4.52-7.54-6.06-11.71c-1.54-4.17-2.3-8.76-2.3-13.76c0-5.27,1.02-10.03,3.05-14.26c2.03-4.24,4.74-7.86,8.11-10.86
			c3.37-3,7.19-5.31,11.46-6.91s8.67-2.4,13.21-2.4c3.34,0,6.41,0.27,9.21,0.8c2.8,0.53,5.32,1.17,7.56,1.9
			c2.24,0.73,4.19,1.47,5.86,2.2c1.67,0.73,3.04,1.34,4.1,1.8L1251.2,107.94z"/>
		<path fill="#0F4229" d="M1321.97,222.75c2,0,3.99-0.37,5.96-1.1c1.97-0.73,3.87-1.73,5.71-3c1.83-1.27,3.6-2.72,5.31-4.35
			c1.7-1.63,3.29-3.35,4.75-5.15l1,0.5l-6.51,16.12c-0.8,0.4-1.79,0.89-2.95,1.45c-1.17,0.57-2.57,1.1-4.2,1.6
			c-1.64,0.5-3.55,0.93-5.76,1.3c-2.2,0.37-4.8,0.55-7.81,0.55c-8.94,0-15.9-2.42-20.87-7.26c-4.97-4.84-7.46-12.4-7.46-22.67
			v-66.77l-16.82,0.6v-8.81c2.07,0.13,4.54,0.23,7.41,0.3c2.87,0.07,6.01,0.1,9.41,0.1c-0.07-4.74-0.18-8.92-0.35-12.56
			c-0.17-3.64-0.37-6.81-0.6-9.51c-0.23-2.7-0.52-4.99-0.85-6.86c-0.33-1.87-0.67-3.44-1-4.7v-0.4h23.12v0.4
			c-0.4,1.27-0.77,2.84-1.1,4.7c-0.33,1.87-0.62,4.14-0.85,6.81c-0.23,2.67-0.43,5.82-0.6,9.46c-0.17,3.64-0.29,7.86-0.35,12.66
			c4.2-0.07,8.32-0.15,12.36-0.25c4.04-0.1,7.71-0.23,11.01-0.4c3.3-0.17,6.11-0.33,8.41-0.5c2.3-0.17,3.82-0.32,4.55-0.45
			l-1.8,10.21c-3.4-0.07-6.97-0.17-10.71-0.3c-3.2-0.13-6.87-0.23-11.01-0.3c-4.14-0.07-8.41-0.13-12.81-0.2v68.87
			c0,4.14,0.45,7.49,1.35,10.06c0.9,2.57,2.07,4.59,3.5,6.06c1.43,1.47,3.07,2.47,4.91,3
			C1318.15,222.48,1320.03,222.75,1321.97,222.75z"/>
		<path fill="#0F4229" d="M1365.01,165.29c0-5.67-0.08-10.63-0.25-14.86c-0.17-4.24-0.37-7.89-0.6-10.96
			c-0.23-3.07-0.54-5.64-0.9-7.71c-0.37-2.07-0.75-3.8-1.15-5.21v-0.4h23.12v0.4c-0.4,1.4-0.77,3.14-1.1,5.21
			c-0.33,2.07-0.64,4.64-0.9,7.71c-0.27,3.07-0.47,6.72-0.6,10.96c-0.13,4.24-0.2,9.19-0.2,14.86v24.22c0,5.67,0.07,10.63,0.2,14.86
			c0.13,4.24,0.33,7.89,0.6,10.96c0.27,3.07,0.57,5.64,0.9,7.71c0.33,2.07,0.7,3.8,1.1,5.21v0.4h-23.12v-0.4
			c0.4-1.4,0.78-3.14,1.15-5.21c0.37-2.07,0.67-4.64,0.9-7.71c0.23-3.07,0.43-6.72,0.6-10.96c0.17-4.24,0.25-9.19,0.25-14.86V165.29
			z M1362.91,95.82c0-1.47,0.28-2.85,0.85-4.15c0.57-1.3,1.32-2.44,2.25-3.4c0.93-0.97,2.05-1.73,3.35-2.3
			c1.3-0.57,2.72-0.85,4.25-0.85c1.53,0,2.95,0.28,4.25,0.85c1.3,0.57,2.44,1.34,3.4,2.3c0.97,0.97,1.73,2.1,2.3,3.4
			c0.57,1.3,0.85,2.69,0.85,4.15c0,3.07-1.04,5.64-3.1,7.71c-2.07,2.07-4.64,3.1-7.71,3.1c-1.54,0-2.95-0.28-4.25-0.85
			c-1.3-0.57-2.42-1.33-3.35-2.3c-0.94-0.97-1.69-2.1-2.25-3.4C1363.19,98.78,1362.91,97.36,1362.91,95.82z"/>
		<path fill="#0F4229" d="M1497.04,207.33l-7.41,17.82c-1.8,0.8-3.87,1.54-6.21,2.2c-2.34,0.67-4.75,1.24-7.26,1.7
			c-2.5,0.47-5.02,0.82-7.56,1.05c-2.54,0.23-4.94,0.35-7.21,0.35c-8.07,0-15.53-1.19-22.37-3.55c-6.84-2.37-12.75-5.82-17.72-10.36
			c-4.97-4.54-8.86-10.11-11.66-16.72s-4.2-14.15-4.2-22.62c0-7.54,1.45-14.53,4.35-20.97c2.9-6.44,6.94-12.03,12.11-16.77
			c5.17-4.74,11.26-8.44,18.27-11.11c7.01-2.67,14.62-4,22.82-4c3.74,0,7.74,0.32,12.01,0.95c4.27,0.63,8.07,1.45,11.41,2.45
			l7.11,17.02l-1.2,0.7c-1.67-2.07-3.65-3.95-5.96-5.66c-2.3-1.7-4.84-3.15-7.61-4.35c-2.77-1.2-5.69-2.13-8.76-2.8
			c-3.07-0.67-6.21-1-9.41-1c-5.21,0-9.94,0.92-14.21,2.75c-4.27,1.84-7.94,4.49-11.01,7.96c-3.07,3.47-5.46,7.72-7.16,12.76
			c-1.7,5.04-2.55,10.76-2.55,17.17c0,7.21,0.82,13.91,2.45,20.12c1.63,6.21,4.07,11.6,7.31,16.17c3.24,4.57,7.31,8.14,12.21,10.71
			c4.9,2.57,10.66,3.85,17.27,3.85c3.07,0,6.12-0.38,9.16-1.15c3.04-0.77,5.91-1.87,8.61-3.3c2.7-1.43,5.19-3.15,7.46-5.15
			c2.27-2,4.17-4.27,5.71-6.81L1497.04,207.33z"/>
		<path fill="#0F4229" d="M1517.36,118.15c0-5.67-0.08-10.63-0.25-14.86c-0.17-4.24-0.37-7.89-0.6-10.96
			c-0.23-3.07-0.54-5.64-0.9-7.71c-0.37-2.07-0.75-3.8-1.15-5.21v-0.4h23.12v0.4c-0.4,1.4-0.77,3.14-1.1,5.21
			c-0.33,2.07-0.63,4.64-0.9,7.71c-0.27,3.07-0.47,6.72-0.6,10.96c-0.13,4.24-0.2,9.19-0.2,14.86v49.85l32.73-29.33
			c5.74-5,8.61-9.17,8.61-12.51h23.22v0.4c-1.74,0.53-3.39,1.22-4.95,2.05c-1.57,0.84-3.14,1.82-4.71,2.95
			c-1.57,1.14-3.2,2.42-4.9,3.85c-1.7,1.44-3.55,3.05-5.56,4.85l-29.33,26.73l40.24,47.55c1.2,1.47,2.5,2.95,3.9,4.45
			c1.4,1.5,2.8,2.89,4.2,4.15c1.4,1.27,2.77,2.37,4.1,3.3c1.33,0.94,2.57,1.54,3.7,1.8v0.4h-29.03c0-1.73-0.45-3.54-1.35-5.41
			c-0.9-1.87-2.52-4.24-4.85-7.11l-36.04-42.84v16.22c0,5.67,0.07,10.63,0.2,14.86c0.13,4.24,0.33,7.89,0.6,10.96
			c0.27,3.07,0.57,5.64,0.9,7.71c0.33,2.07,0.7,3.8,1.1,5.21v0.4h-23.12v-0.4c0.4-1.4,0.78-3.14,1.15-5.21
			c0.37-2.07,0.67-4.64,0.9-7.71c0.23-3.07,0.43-6.72,0.6-10.96c0.17-4.24,0.25-9.19,0.25-14.86V118.15z"/>
	</g>
	<g>
		<path fill="#348E38" d="M415.42,319.68v-0.2c0.06-0.16,0.11-0.41,0.15-0.73c0.03-0.33,0.05-0.62,0.05-0.88
			c0-1.01-0.14-2.12-0.42-3.34c-0.28-1.22-0.81-2.74-1.59-4.57l-5.91-13.28c-1.82-0.06-4.25-0.1-7.28-0.1s-6.3,0-9.81,0
			c-2.57,0-5.05,0-7.45,0s-4.55,0.03-6.47,0.1l-5.62,12.89c-0.49,1.2-1.01,2.52-1.56,3.96c-0.55,1.43-0.83,2.88-0.83,4.35
			c0,0.42,0.03,0.77,0.1,1.05c0.06,0.28,0.13,0.46,0.2,0.56v0.2h-9.96v-0.2c0.59-0.62,1.32-1.72,2.2-3.3
			c0.88-1.58,1.84-3.56,2.88-5.93l27.98-62.06h3.91l26.51,59.67c0.62,1.4,1.26,2.76,1.93,4.08c0.67,1.32,1.29,2.5,1.88,3.54
			c0.59,1.04,1.11,1.92,1.56,2.64c0.46,0.72,0.76,1.17,0.93,1.37v0.2H415.42z M383.78,292.39c1.89,0,3.82-0.01,5.81-0.02
			c1.99-0.02,3.93-0.03,5.83-0.05c1.9-0.02,3.74-0.03,5.49-0.05c1.76-0.02,3.35-0.04,4.79-0.07l-13.72-31.01l-13.48,31.2H383.78z"/>
		<path fill="#348E38" d="M435.63,265.77c0-2.77-0.04-5.18-0.12-7.25c-0.08-2.07-0.18-3.85-0.29-5.35c-0.11-1.5-0.26-2.75-0.44-3.76
			c-0.18-1.01-0.37-1.86-0.56-2.54v-0.2h11.28v0.2c-0.2,0.68-0.37,1.53-0.54,2.54c-0.16,1.01-0.31,2.26-0.44,3.76
			c-0.13,1.5-0.23,3.28-0.29,5.35c-0.07,2.07-0.1,4.48-0.1,7.25v34.81c0,2.77,0.03,5.18,0.1,7.25c0.06,2.07,0.16,3.85,0.29,5.35
			c0.13,1.5,0.28,2.75,0.44,3.76c0.16,1.01,0.34,1.86,0.54,2.54v0.2h-11.28v-0.2c0.2-0.68,0.38-1.53,0.56-2.54
			c0.18-1.01,0.33-2.26,0.44-3.76c0.11-1.5,0.21-3.28,0.29-5.35c0.08-2.07,0.12-4.48,0.12-7.25V265.77z"/>
		<path fill="#348E38" d="M459.76,265.77c0-2.77-0.04-5.18-0.12-7.25c-0.08-2.07-0.18-3.85-0.29-5.35c-0.11-1.5-0.26-2.75-0.44-3.76
			c-0.18-1.01-0.37-1.86-0.56-2.54v-0.2h11.28v0.2c-0.2,0.68-0.37,1.53-0.54,2.54c-0.16,1.01-0.31,2.26-0.44,3.76
			c-0.13,1.5-0.23,3.28-0.29,5.35c-0.07,2.07-0.1,4.48-0.1,7.25v34.81c0,2.77,0.03,5.18,0.1,7.25c0.06,2.07,0.16,3.85,0.29,5.35
			c0.13,1.5,0.28,2.75,0.44,3.76c0.16,1.01,0.34,1.86,0.54,2.54v0.2h-11.28v-0.2c0.2-0.68,0.38-1.53,0.56-2.54
			c0.18-1.01,0.33-2.26,0.44-3.76c0.11-1.5,0.21-3.28,0.29-5.35c0.08-2.07,0.12-4.48,0.12-7.25V265.77z"/>
		<path fill="#348E38" d="M509.46,294.58c0-3.68,0.68-7.09,2.05-10.23c1.37-3.14,3.25-5.87,5.64-8.18c2.39-2.31,5.22-4.12,8.47-5.42
			c3.25-1.3,6.75-1.95,10.5-1.95c3.68,0,7.14,0.61,10.38,1.83c3.24,1.22,6.06,2.95,8.47,5.2c2.41,2.25,4.3,4.98,5.69,8.2
			c1.38,3.22,2.08,6.84,2.08,10.84c0,3.35-0.59,6.58-1.76,9.67c-1.17,3.09-2.9,5.83-5.18,8.2c-2.28,2.38-5.07,4.27-8.37,5.69
			c-3.3,1.42-7.1,2.12-11.4,2.12c-3.65,0-7.08-0.6-10.3-1.81s-6.04-2.93-8.45-5.18c-2.41-2.25-4.31-4.97-5.71-8.18
			C510.16,302.19,509.46,298.59,509.46,294.58z M537.15,316.99c2.31,0,4.44-0.46,6.37-1.37c1.94-0.91,3.6-2.23,5-3.96
			c1.4-1.73,2.49-3.82,3.27-6.3c0.78-2.47,1.17-5.27,1.17-8.4c0-3.52-0.37-6.78-1.12-9.79c-0.75-3.01-1.86-5.62-3.34-7.81
			c-1.48-2.2-3.34-3.91-5.59-5.15c-2.25-1.24-4.87-1.86-7.86-1.86c-2.31,0-4.43,0.45-6.35,1.34c-1.92,0.9-3.59,2.19-5,3.88
			c-1.42,1.69-2.51,3.77-3.3,6.23c-0.78,2.46-1.17,5.25-1.17,8.37c0,3.52,0.38,6.79,1.15,9.81c0.76,3.03,1.9,5.66,3.39,7.89
			c1.5,2.23,3.36,3.97,5.59,5.22C531.59,316.37,534.19,316.99,537.15,316.99z"/>
		<path fill="#348E38" d="M581.88,302.59c0,4.3,0.85,7.45,2.56,9.47c1.71,2.02,4.01,3.03,6.91,3.03c1.04,0,2.21-0.22,3.52-0.66
			c1.3-0.44,2.64-1.03,4.03-1.76c1.38-0.73,2.77-1.59,4.15-2.56c1.38-0.98,2.66-2.02,3.83-3.12c0.06-0.94,0.1-1.94,0.1-3
			c0-1.06,0-2.19,0-3.39v-11.82c0-2.77-0.04-5.18-0.12-7.25c-0.08-2.07-0.18-3.85-0.29-5.35c-0.11-1.5-0.26-2.75-0.44-3.76
			c-0.18-1.01-0.37-1.86-0.56-2.54v-0.2h11.28v0.2c-0.2,0.68-0.37,1.53-0.54,2.54c-0.16,1.01-0.31,2.26-0.44,3.76
			c-0.13,1.5-0.23,3.28-0.29,5.35c-0.07,2.07-0.1,4.48-0.1,7.25v11.82c0,2.77,0.03,5.18,0.1,7.25c0.06,2.07,0.16,3.85,0.29,5.35
			c0.13,1.5,0.28,2.75,0.44,3.76c0.16,1.01,0.34,1.86,0.54,2.54v0.2h-11.28v-0.2c0.2-0.81,0.4-1.86,0.61-3.12
			c0.21-1.27,0.37-2.93,0.46-4.98c-1.33,1.14-2.78,2.26-4.32,3.37c-1.55,1.11-3.16,2.1-4.83,2.98c-1.68,0.88-3.37,1.59-5.08,2.12
			s-3.39,0.81-5.05,0.81c-2.54,0-4.7-0.44-6.47-1.32c-1.77-0.88-3.22-2.03-4.35-3.47c-1.12-1.43-1.94-3.06-2.44-4.88
			c-0.5-1.82-0.76-3.69-0.76-5.62v-16.6c0-2.77-0.03-5.18-0.1-7.25c-0.07-2.07-0.16-3.85-0.29-5.35c-0.13-1.5-0.28-2.75-0.44-3.76
			c-0.16-1.01-0.34-1.86-0.54-2.54v-0.2h11.28v0.2c-0.2,0.68-0.37,1.53-0.54,2.54c-0.16,1.01-0.31,2.26-0.44,3.76
			c-0.13,1.5-0.23,3.28-0.29,5.35c-0.07,2.07-0.1,4.48-0.1,7.25V302.59z"/>
		<path fill="#348E38" d="M630.46,288.77c0-2.77-0.04-5.18-0.12-7.25c-0.08-2.07-0.18-3.85-0.29-5.35c-0.11-1.5-0.26-2.75-0.44-3.76
			c-0.18-1.01-0.37-1.86-0.56-2.54v-0.2h11.28v0.2c-0.26,0.75-0.48,1.66-0.66,2.73c-0.18,1.07-0.32,2.46-0.42,4.15
			c1.2-1.01,2.46-2,3.76-2.98c1.3-0.98,2.64-1.84,4-2.59c1.37-0.75,2.76-1.35,4.17-1.81c1.42-0.46,2.84-0.68,4.27-0.68
			c0.88,0,1.64,0.04,2.29,0.12c0.65,0.08,1.24,0.2,1.76,0.34c0.52,0.15,0.99,0.31,1.42,0.49c0.42,0.18,0.83,0.35,1.22,0.51
			l-2.39,9.33l-0.83-0.2c-0.39-1.43-1.12-2.58-2.2-3.44c-1.07-0.86-2.54-1.29-4.39-1.29c-1.01,0-2.07,0.18-3.17,0.54
			c-1.11,0.36-2.23,0.85-3.37,1.49c-1.14,0.63-2.28,1.37-3.42,2.2c-1.14,0.83-2.25,1.7-3.32,2.61c-0.07,0.94-0.1,1.97-0.1,3.08
			c0,1.11,0,2.28,0,3.52v12.6c0,2.77,0.03,5.18,0.1,7.25c0.06,2.07,0.16,3.85,0.29,5.35c0.13,1.5,0.28,2.75,0.44,3.76
			c0.16,1.01,0.34,1.86,0.54,2.54v0.2h-11.28v-0.2c0.2-0.68,0.38-1.53,0.56-2.54c0.18-1.01,0.33-2.26,0.44-3.76
			c0.11-1.5,0.21-3.28,0.29-5.35c0.08-2.07,0.12-4.48,0.12-7.25V288.77z"/>
		<path fill="#348E38" d="M699.65,287.8c0-2.77-0.04-5.18-0.12-7.25c-0.08-2.07-0.18-3.85-0.29-5.35c-0.11-1.5-0.26-2.75-0.44-3.76
			c-0.18-1.01-0.37-1.86-0.56-2.54v-0.2h11.28v0.2c-0.16,0.49-0.31,1.04-0.44,1.66c-0.13,0.62-0.24,1.32-0.34,2.1
			c1.92-1.11,4.04-2.04,6.37-2.81c2.33-0.76,4.91-1.15,7.74-1.15c3.61,0,6.91,0.61,9.89,1.83s5.53,2.97,7.67,5.25
			c2.13,2.28,3.78,5.03,4.96,8.25s1.76,6.84,1.76,10.84c0,3.35-0.58,6.58-1.73,9.67c-1.16,3.09-2.85,5.83-5.08,8.2
			c-2.23,2.38-4.97,4.27-8.23,5.69c-3.26,1.42-7,2.12-11.23,2.12c-2.54,0-4.85-0.2-6.93-0.59c-2.08-0.39-4-0.9-5.76-1.51v7.13
			c0,2.77,0.03,5.18,0.1,7.25c0.06,2.07,0.16,3.85,0.29,5.35c0.13,1.5,0.28,2.75,0.44,3.76c0.16,1.01,0.34,1.86,0.54,2.54v0.2
			h-11.28v-0.2c0.2-0.68,0.38-1.53,0.56-2.54c0.18-1.01,0.33-2.26,0.44-3.76c0.11-1.5,0.21-3.28,0.29-5.35
			c0.08-2.07,0.12-4.48,0.12-7.25V287.8z M721.13,272.37c-1.11,0-2.24,0.14-3.39,0.42c-1.16,0.28-2.29,0.67-3.42,1.17
			c-1.12,0.5-2.2,1.14-3.22,1.9c-1.03,0.77-1.95,1.64-2.76,2.61c-0.07,1.24-0.11,2.64-0.15,4.2c-0.03,1.56-0.05,3.27-0.05,5.13
			v25.59c0.65,0.49,1.38,0.94,2.2,1.37c0.81,0.42,1.73,0.81,2.76,1.15s2.18,0.61,3.47,0.81c1.29,0.2,2.71,0.29,4.27,0.29
			c2.54,0,4.83-0.46,6.88-1.37c2.05-0.91,3.78-2.23,5.2-3.96c1.42-1.73,2.51-3.82,3.27-6.3c0.76-2.47,1.15-5.27,1.15-8.4
			c0-3.52-0.29-6.78-0.88-9.79c-0.59-3.01-1.52-5.62-2.81-7.81c-1.29-2.2-2.95-3.91-5-5.15
			C726.6,272.98,724.09,272.37,721.13,272.37z"/>
		<path fill="#348E38" d="M758.05,288.77c0-2.77-0.04-5.18-0.12-7.25c-0.08-2.07-0.18-3.85-0.29-5.35c-0.11-1.5-0.26-2.75-0.44-3.76
			c-0.18-1.01-0.37-1.86-0.56-2.54v-0.2h11.28v0.2c-0.26,0.75-0.48,1.66-0.66,2.73c-0.18,1.07-0.32,2.46-0.42,4.15
			c1.2-1.01,2.46-2,3.76-2.98c1.3-0.98,2.64-1.84,4-2.59c1.37-0.75,2.76-1.35,4.17-1.81c1.42-0.46,2.84-0.68,4.27-0.68
			c0.88,0,1.64,0.04,2.29,0.12c0.65,0.08,1.24,0.2,1.76,0.34c0.52,0.15,0.99,0.31,1.42,0.49c0.42,0.18,0.83,0.35,1.22,0.51
			l-2.39,9.33l-0.83-0.2c-0.39-1.43-1.12-2.58-2.2-3.44c-1.07-0.86-2.54-1.29-4.39-1.29c-1.01,0-2.07,0.18-3.17,0.54
			c-1.11,0.36-2.23,0.85-3.37,1.49c-1.14,0.63-2.28,1.37-3.42,2.2c-1.14,0.83-2.25,1.7-3.32,2.61c-0.07,0.94-0.1,1.97-0.1,3.08
			c0,1.11,0,2.28,0,3.52v12.6c0,2.77,0.03,5.18,0.1,7.25c0.06,2.07,0.16,3.85,0.29,5.35c0.13,1.5,0.28,2.75,0.44,3.76
			c0.16,1.01,0.34,1.86,0.54,2.54v0.2h-11.28v-0.2c0.2-0.68,0.38-1.53,0.56-2.54c0.18-1.01,0.33-2.26,0.44-3.76
			c0.11-1.5,0.21-3.28,0.29-5.35c0.08-2.07,0.12-4.48,0.12-7.25V288.77z"/>
		<path fill="#348E38" d="M793.15,294.58c0-3.68,0.68-7.09,2.05-10.23c1.37-3.14,3.25-5.87,5.64-8.18c2.39-2.31,5.22-4.12,8.47-5.42
			c3.25-1.3,6.75-1.95,10.5-1.95c3.68,0,7.14,0.61,10.38,1.83c3.24,1.22,6.06,2.95,8.47,5.2c2.41,2.25,4.3,4.98,5.69,8.2
			c1.38,3.22,2.08,6.84,2.08,10.84c0,3.35-0.59,6.58-1.76,9.67c-1.17,3.09-2.9,5.83-5.18,8.2c-2.28,2.38-5.07,4.27-8.37,5.69
			c-3.3,1.42-7.1,2.12-11.4,2.12c-3.65,0-7.08-0.6-10.3-1.81s-6.04-2.93-8.45-5.18c-2.41-2.25-4.31-4.97-5.71-8.18
			C793.85,302.19,793.15,298.59,793.15,294.58z M820.84,316.99c2.31,0,4.44-0.46,6.37-1.37c1.94-0.91,3.6-2.23,5-3.96
			c1.4-1.73,2.49-3.82,3.27-6.3c0.78-2.47,1.17-5.27,1.17-8.4c0-3.52-0.37-6.78-1.12-9.79c-0.75-3.01-1.86-5.62-3.34-7.81
			c-1.48-2.2-3.34-3.91-5.59-5.15c-2.25-1.24-4.87-1.86-7.86-1.86c-2.31,0-4.43,0.45-6.35,1.34c-1.92,0.9-3.59,2.19-5,3.88
			c-1.42,1.69-2.51,3.77-3.3,6.23c-0.78,2.46-1.17,5.25-1.17,8.37c0,3.52,0.38,6.79,1.15,9.81c0.76,3.03,1.9,5.66,3.39,7.89
			c1.5,2.23,3.36,3.97,5.59,5.22C815.28,316.37,817.88,316.99,820.84,316.99z"/>
		<path fill="#348E38" d="M879.63,268.8c1.33,0,2.67,0.11,4,0.34c1.33,0.23,2.64,0.55,3.91,0.98c1.27,0.42,2.47,0.94,3.61,1.56
			c1.14,0.62,2.16,1.32,3.08,2.1v-8.01c0-2.77-0.03-5.18-0.1-7.25c-0.07-2.07-0.16-3.85-0.29-5.35c-0.13-1.5-0.28-2.75-0.44-3.76
			c-0.16-1.01-0.34-1.86-0.54-2.54v-0.2h11.28v0.2c-0.2,0.68-0.38,1.53-0.56,2.54c-0.18,1.01-0.33,2.26-0.44,3.76
			c-0.11,1.5-0.21,3.28-0.29,5.35c-0.08,2.07-0.12,4.48-0.12,7.25v34.81c0,2.77,0.04,5.18,0.12,7.25c0.08,2.07,0.18,3.85,0.29,5.35
			c0.11,1.5,0.26,2.75,0.44,3.76c0.18,1.01,0.37,1.86,0.56,2.54v0.2h-10.79v-0.2c0.1-0.26,0.18-0.64,0.24-1.15
			c0.06-0.5,0.15-1.13,0.24-1.88c-1.66,1.04-3.74,1.99-6.25,2.83c-2.51,0.85-5.42,1.27-8.74,1.27c-3.87,0-7.39-0.6-10.55-1.81
			c-3.16-1.2-5.85-2.93-8.08-5.18c-2.23-2.25-3.95-4.97-5.15-8.18c-1.2-3.21-1.81-6.81-1.81-10.82c0-3.68,0.65-7.09,1.95-10.23
			c1.3-3.14,3.12-5.87,5.47-8.18c2.34-2.31,5.13-4.12,8.35-5.42C872.26,269.45,875.79,268.8,879.63,268.8z M894.23,282.38
			c-1.3-3.42-3.17-5.94-5.59-7.57c-2.43-1.63-5.15-2.44-8.18-2.44c-2.54,0-4.88,0.45-7.03,1.34c-2.15,0.9-3.99,2.19-5.52,3.88
			c-1.53,1.69-2.73,3.77-3.59,6.23c-0.86,2.46-1.29,5.25-1.29,8.37c0,3.52,0.39,6.79,1.17,9.81s1.93,5.66,3.44,7.89
			c1.51,2.23,3.39,3.97,5.64,5.22c2.25,1.25,4.83,1.88,7.76,1.88c1.53,0,2.96-0.18,4.3-0.54c1.33-0.36,2.55-0.81,3.66-1.37
			c1.11-0.55,2.08-1.16,2.93-1.83c0.85-0.67,1.55-1.33,2.1-1.98c0.06-1.4,0.11-2.99,0.15-4.79c0.03-1.79,0.05-3.76,0.05-5.91V282.38
			z"/>
		<path fill="#348E38" d="M925.97,302.59c0,4.3,0.85,7.45,2.56,9.47c1.71,2.02,4.01,3.03,6.91,3.03c1.04,0,2.21-0.22,3.52-0.66
			c1.3-0.44,2.64-1.03,4.03-1.76c1.38-0.73,2.77-1.59,4.15-2.56c1.38-0.98,2.66-2.02,3.83-3.12c0.06-0.94,0.1-1.94,0.1-3
			c0-1.06,0-2.19,0-3.39v-11.82c0-2.77-0.04-5.18-0.12-7.25c-0.08-2.07-0.18-3.85-0.29-5.35c-0.11-1.5-0.26-2.75-0.44-3.76
			c-0.18-1.01-0.37-1.86-0.56-2.54v-0.2h11.28v0.2c-0.2,0.68-0.38,1.53-0.54,2.54c-0.16,1.01-0.31,2.26-0.44,3.76
			c-0.13,1.5-0.23,3.28-0.29,5.35c-0.07,2.07-0.1,4.48-0.1,7.25v11.82c0,2.77,0.03,5.18,0.1,7.25c0.06,2.07,0.16,3.85,0.29,5.35
			c0.13,1.5,0.28,2.75,0.44,3.76c0.16,1.01,0.34,1.86,0.54,2.54v0.2h-11.28v-0.2c0.2-0.81,0.4-1.86,0.61-3.12
			c0.21-1.27,0.37-2.93,0.46-4.98c-1.33,1.14-2.78,2.26-4.32,3.37c-1.55,1.11-3.16,2.1-4.83,2.98c-1.68,0.88-3.37,1.59-5.08,2.12
			s-3.39,0.81-5.05,0.81c-2.54,0-4.7-0.44-6.47-1.32c-1.77-0.88-3.22-2.03-4.35-3.47c-1.12-1.43-1.94-3.06-2.44-4.88
			c-0.5-1.82-0.76-3.69-0.76-5.62v-16.6c0-2.77-0.03-5.18-0.1-7.25c-0.07-2.07-0.16-3.85-0.29-5.35c-0.13-1.5-0.28-2.75-0.44-3.76
			c-0.16-1.01-0.34-1.86-0.54-2.54v-0.2h11.28v0.2c-0.2,0.68-0.38,1.53-0.54,2.54c-0.16,1.01-0.31,2.26-0.44,3.76
			c-0.13,1.5-0.23,3.28-0.29,5.35c-0.07,2.07-0.1,4.48-0.1,7.25V302.59z"/>
		<path fill="#348E38" d="M1015.13,309.28l-3.61,8.69c-0.88,0.39-1.89,0.75-3.03,1.07c-1.14,0.33-2.32,0.6-3.54,0.83
			s-2.45,0.4-3.69,0.51c-1.24,0.11-2.41,0.17-3.52,0.17c-3.94,0-7.58-0.58-10.91-1.73c-3.34-1.16-6.22-2.84-8.64-5.05
			c-2.43-2.21-4.32-4.93-5.69-8.15s-2.05-6.9-2.05-11.04c0-3.68,0.71-7.09,2.12-10.23c1.42-3.14,3.38-5.87,5.91-8.18
			c2.52-2.31,5.49-4.12,8.91-5.42c3.42-1.3,7.13-1.95,11.13-1.95c1.82,0,3.78,0.15,5.86,0.46c2.08,0.31,3.94,0.71,5.57,1.2l3.47,8.3
			l-0.59,0.34c-0.81-1.01-1.78-1.93-2.91-2.76s-2.36-1.54-3.71-2.12c-1.35-0.59-2.78-1.04-4.27-1.37c-1.5-0.33-3.03-0.49-4.59-0.49
			c-2.54,0-4.85,0.45-6.93,1.34c-2.08,0.9-3.87,2.19-5.37,3.88c-1.5,1.69-2.66,3.77-3.49,6.23c-0.83,2.46-1.25,5.25-1.25,8.37
			c0,3.52,0.4,6.79,1.2,9.81c0.8,3.03,1.99,5.66,3.56,7.89c1.58,2.23,3.56,3.97,5.96,5.22c2.39,1.25,5.2,1.88,8.42,1.88
			c1.5,0,2.99-0.19,4.47-0.56c1.48-0.37,2.88-0.91,4.2-1.61c1.32-0.7,2.53-1.54,3.64-2.51c1.11-0.98,2.03-2.08,2.78-3.32
			L1015.13,309.28z"/>
		<path fill="#348E38" d="M1042.71,316.8c0.98,0,1.94-0.18,2.91-0.54c0.96-0.36,1.89-0.85,2.78-1.46c0.89-0.62,1.76-1.33,2.59-2.12
			c0.83-0.8,1.6-1.64,2.32-2.51l0.49,0.24l-3.17,7.86c-0.39,0.2-0.87,0.43-1.44,0.71c-0.57,0.28-1.25,0.54-2.05,0.78
			c-0.8,0.24-1.73,0.46-2.81,0.63c-1.07,0.18-2.34,0.27-3.81,0.27c-4.36,0-7.76-1.18-10.18-3.54c-2.43-2.36-3.64-6.05-3.64-11.06
			v-32.57l-8.2,0.29v-4.3c1.01,0.07,2.21,0.11,3.61,0.15c1.4,0.03,2.93,0.05,4.59,0.05c-0.03-2.31-0.09-4.35-0.17-6.13
			c-0.08-1.77-0.18-3.32-0.29-4.64c-0.11-1.32-0.25-2.43-0.42-3.34c-0.16-0.91-0.33-1.68-0.49-2.29v-0.2h11.28v0.2
			c-0.2,0.62-0.38,1.38-0.54,2.29c-0.16,0.91-0.3,2.02-0.42,3.32c-0.11,1.3-0.21,2.84-0.29,4.61c-0.08,1.77-0.14,3.83-0.17,6.18
			c2.05-0.03,4.06-0.07,6.03-0.12c1.97-0.05,3.76-0.11,5.37-0.2c1.61-0.08,2.98-0.16,4.1-0.24c1.12-0.08,1.86-0.15,2.22-0.22
			l-0.88,4.98c-1.66-0.03-3.4-0.08-5.22-0.15c-1.56-0.06-3.35-0.11-5.37-0.15c-2.02-0.03-4.1-0.06-6.25-0.1v33.59
			c0,2.02,0.22,3.65,0.66,4.91c0.44,1.25,1.01,2.24,1.71,2.95c0.7,0.72,1.5,1.2,2.39,1.46
			C1040.85,316.67,1041.77,316.8,1042.71,316.8z"/>
		<path fill="#348E38" d="M1085.49,279.49l-0.68,0.1c-0.23-0.75-0.59-1.55-1.1-2.39c-0.5-0.85-1.16-1.63-1.95-2.34
			c-0.8-0.72-1.76-1.31-2.88-1.78c-1.12-0.47-2.42-0.71-3.88-0.71c-1.01,0-1.96,0.15-2.86,0.44c-0.9,0.29-1.68,0.72-2.34,1.29
			c-0.67,0.57-1.2,1.28-1.59,2.12c-0.39,0.85-0.59,1.84-0.59,2.98c0,1.6,0.5,3.12,1.49,4.57c0.99,1.45,2.24,2.88,3.74,4.3
			c1.5,1.42,3.12,2.84,4.86,4.27c1.74,1.43,3.36,2.93,4.86,4.49c1.5,1.56,2.74,3.23,3.74,5c0.99,1.77,1.49,3.69,1.49,5.74
			c0,1.66-0.29,3.28-0.88,4.86c-0.59,1.58-1.49,2.99-2.71,4.22c-1.22,1.24-2.78,2.24-4.69,3s-4.17,1.15-6.81,1.15
			c-1.56,0-3.02-0.15-4.37-0.44c-1.35-0.29-2.59-0.66-3.71-1.1s-2.13-0.93-3.03-1.46c-0.9-0.54-1.68-1.05-2.37-1.54l0.49-9.28h0.78
			c0.33,1.53,0.81,2.93,1.46,4.2c0.65,1.27,1.46,2.35,2.42,3.25c0.96,0.9,2.06,1.6,3.3,2.1c1.24,0.5,2.59,0.76,4.05,0.76
			c2.41,0,4.32-0.67,5.74-2c1.42-1.33,2.12-3.08,2.12-5.22c0-1.73-0.48-3.31-1.44-4.76c-0.96-1.45-2.17-2.84-3.64-4.17
			c-1.46-1.33-3.04-2.67-4.71-4c-1.68-1.33-3.25-2.76-4.71-4.27s-2.68-3.17-3.64-4.98c-0.96-1.81-1.44-3.87-1.44-6.18
			c0-1.89,0.35-3.62,1.05-5.2c0.7-1.58,1.68-2.93,2.93-4.05c1.25-1.12,2.74-1.99,4.47-2.61c1.72-0.62,3.61-0.93,5.66-0.93
			c2.7,0,4.96,0.29,6.76,0.85c1.81,0.57,3.18,1.12,4.13,1.64L1085.49,279.49z"/>
		<path fill="#348E38" d="M1124.89,305.28c0-2.57,0.53-4.8,1.59-6.69c1.06-1.89,2.47-3.5,4.22-4.83c1.76-1.33,3.76-2.42,6.01-3.25
			s4.57-1.48,6.98-1.95c2.41-0.47,4.79-0.8,7.13-0.98c2.34-0.18,4.49-0.28,6.45-0.32v-2.49c0-2.15-0.28-4-0.83-5.57
			c-0.55-1.56-1.33-2.86-2.34-3.88c-1.01-1.03-2.22-1.79-3.64-2.29c-1.42-0.5-2.97-0.76-4.66-0.76c-1.17,0-2.33,0.1-3.47,0.29
			c-1.14,0.2-2.32,0.52-3.54,0.98c-1.22,0.46-2.51,1.07-3.86,1.86c-1.35,0.78-2.81,1.77-4.37,2.98l-0.49-0.29l3.32-6.88
			c1.07-0.49,2.13-0.89,3.17-1.2c1.04-0.31,2.1-0.56,3.17-0.76s2.17-0.33,3.3-0.42c1.12-0.08,2.3-0.12,3.54-0.12
			c3.42,0,6.34,0.42,8.76,1.25c2.42,0.83,4.41,1.97,5.96,3.42c1.55,1.45,2.68,3.14,3.39,5.08c0.72,1.94,1.07,4.01,1.07,6.23v15.92
			c0,2.77,0.04,5.18,0.12,7.25c0.08,2.07,0.18,3.85,0.29,5.35c0.11,1.5,0.26,2.75,0.44,3.76c0.18,1.01,0.37,1.86,0.56,2.54v0.2
			h-10.79v-0.2c0.16-0.52,0.28-1.11,0.37-1.76c0.08-0.65,0.15-1.43,0.22-2.34c-0.68,0.59-1.49,1.19-2.42,1.81
			c-0.93,0.62-1.99,1.18-3.17,1.68c-1.19,0.5-2.51,0.91-3.96,1.22c-1.45,0.31-3.04,0.46-4.76,0.46c-5.66,0-10.04-1.33-13.13-3.98
			C1126.44,313.93,1124.89,310.16,1124.89,305.28z M1157.27,291.07c-2.96,0.03-5.81,0.2-8.54,0.51c-2.73,0.31-5.15,0.95-7.25,1.93
			s-3.78,2.37-5.03,4.17c-1.25,1.81-1.88,4.21-1.88,7.2c0,3.84,0.96,6.77,2.88,8.79c1.92,2.02,4.57,3.03,7.96,3.03
			c1.56,0,2.99-0.22,4.27-0.66c1.29-0.44,2.42-0.99,3.42-1.66c0.99-0.67,1.83-1.4,2.51-2.2c0.68-0.8,1.2-1.57,1.56-2.32
			c0.06-1.24,0.1-2.61,0.1-4.13s0-3.23,0-5.15V291.07z"/>
		<path fill="#348E38" d="M1180.51,288.77c0-2.77-0.04-5.18-0.12-7.25c-0.08-2.07-0.18-3.85-0.29-5.35
			c-0.11-1.5-0.26-2.75-0.44-3.76c-0.18-1.01-0.37-1.86-0.56-2.54v-0.2h11.28v0.2c-0.26,0.75-0.48,1.66-0.66,2.73
			c-0.18,1.07-0.32,2.46-0.42,4.15c1.2-1.01,2.46-2,3.76-2.98c1.3-0.98,2.64-1.84,4-2.59c1.37-0.75,2.76-1.35,4.17-1.81
			c1.42-0.46,2.84-0.68,4.27-0.68c0.88,0,1.64,0.04,2.29,0.12c0.65,0.08,1.24,0.2,1.76,0.34c0.52,0.15,0.99,0.31,1.42,0.49
			c0.42,0.18,0.83,0.35,1.22,0.51l-2.39,9.33l-0.83-0.2c-0.39-1.43-1.12-2.58-2.2-3.44c-1.07-0.86-2.54-1.29-4.39-1.29
			c-1.01,0-2.07,0.18-3.17,0.54c-1.11,0.36-2.23,0.85-3.37,1.49c-1.14,0.63-2.28,1.37-3.42,2.2c-1.14,0.83-2.25,1.7-3.32,2.61
			c-0.07,0.94-0.1,1.97-0.1,3.08c0,1.11,0,2.28,0,3.52v12.6c0,2.77,0.03,5.18,0.1,7.25c0.06,2.07,0.16,3.85,0.29,5.35
			c0.13,1.5,0.28,2.75,0.44,3.76c0.16,1.01,0.34,1.86,0.54,2.54v0.2h-11.28v-0.2c0.2-0.68,0.38-1.53,0.56-2.54
			c0.18-1.01,0.33-2.26,0.44-3.76c0.11-1.5,0.21-3.28,0.29-5.35c0.08-2.07,0.12-4.48,0.12-7.25V288.77z"/>
		<path fill="#348E38" d="M1241.59,320.56c-3.61,0-7-0.57-10.16-1.71c-3.16-1.14-5.91-2.81-8.25-5s-4.19-4.92-5.54-8.15
			c-1.35-3.24-2.03-6.94-2.03-11.11c0-3.68,0.62-7.09,1.86-10.23c1.24-3.14,2.95-5.87,5.13-8.18c2.18-2.31,4.73-4.12,7.64-5.42
			c2.91-1.3,6.06-1.95,9.45-1.95c3.35,0,6.46,0.58,9.33,1.73c2.86,1.16,5.35,2.83,7.45,5.03s3.76,4.92,4.98,8.15
			c1.22,3.24,1.88,6.93,1.98,11.06c-3.68-0.06-7.36-0.11-11.04-0.15c-3.68-0.03-7.5-0.05-11.47-0.05c-2.83,0-5.59,0.02-8.28,0.05
			c-2.69,0.03-5.1,0.08-7.25,0.15c0.2,3.39,0.72,6.45,1.59,9.18c0.86,2.73,2.05,5.07,3.56,7.01c1.51,1.94,3.35,3.43,5.52,4.47
			c2.16,1.04,4.61,1.56,7.35,1.56c1.89,0,3.67-0.22,5.35-0.66c1.68-0.44,3.2-1.05,4.57-1.83s2.59-1.7,3.66-2.76
			c1.07-1.06,1.99-2.21,2.73-3.44l0.59,0.29l-3.61,8.69c-1.76,0.91-3.86,1.68-6.3,2.32S1245.01,320.56,1241.59,320.56z
			 M1235.1,290.77c3.25,0,6.52-0.01,9.79-0.02c3.27-0.02,6.24-0.07,8.91-0.17c-0.29-2.83-0.85-5.37-1.66-7.62
			c-0.81-2.25-1.86-4.15-3.12-5.71s-2.77-2.77-4.49-3.61c-1.73-0.85-3.63-1.27-5.71-1.27c-1.89,0-3.62,0.42-5.2,1.25
			c-1.58,0.83-2.95,2.03-4.13,3.59s-2.12,3.48-2.83,5.74c-0.72,2.26-1.14,4.84-1.27,7.74c1.46,0.07,3.01,0.1,4.64,0.1
			C1231.65,290.77,1233.34,290.77,1235.1,290.77z"/>
		<path fill="#348E38" d="M1337.49,286.77c0-4.3-0.86-7.45-2.59-9.47c-1.73-2.02-4.04-3.03-6.93-3.03c-1.04,0-2.21,0.22-3.52,0.66
			c-1.3,0.44-2.64,1.03-4,1.76s-2.73,1.59-4.1,2.56s-2.65,2.02-3.86,3.12l-0.1,6.4v11.82c0,2.77,0.03,5.18,0.1,7.25
			c0.06,2.07,0.16,3.85,0.29,5.35c0.13,1.5,0.28,2.75,0.44,3.76c0.16,1.01,0.34,1.86,0.54,2.54v0.2h-11.28v-0.2
			c0.2-0.68,0.38-1.53,0.56-2.54c0.18-1.01,0.33-2.26,0.44-3.76c0.11-1.5,0.21-3.28,0.29-5.35c0.08-2.07,0.12-4.48,0.12-7.25v-11.82
			c0-2.77-0.04-5.18-0.12-7.25c-0.08-2.07-0.18-3.85-0.29-5.35c-0.11-1.5-0.26-2.75-0.44-3.76c-0.18-1.01-0.37-1.86-0.56-2.54v-0.2
			h11.28v0.2c-0.26,0.81-0.46,1.85-0.61,3.1c-0.15,1.25-0.3,2.89-0.46,4.91c1.33-1.11,2.77-2.21,4.32-3.32
			c1.55-1.11,3.15-2.09,4.81-2.95c1.66-0.86,3.35-1.56,5.08-2.1c1.72-0.54,3.42-0.81,5.08-0.81c2.54,0,4.7,0.44,6.47,1.32
			c1.77,0.88,3.22,2.03,4.35,3.47c1.12,1.43,1.94,3.07,2.44,4.91c0.5,1.84,0.76,3.7,0.76,5.59v16.6c0,2.77,0.03,5.18,0.1,7.25
			c0.06,2.07,0.16,3.85,0.29,5.35c0.13,1.5,0.28,2.75,0.44,3.76c0.16,1.01,0.34,1.86,0.54,2.54v0.2h-11.28v-0.2
			c0.2-0.68,0.38-1.53,0.56-2.54c0.18-1.01,0.33-2.26,0.44-3.76c0.11-1.5,0.21-3.28,0.29-5.35c0.08-2.07,0.12-4.48,0.12-7.25V286.77
			z"/>
		<path fill="#348E38" d="M1356.78,305.28c0-2.57,0.53-4.8,1.59-6.69c1.06-1.89,2.47-3.5,4.22-4.83c1.76-1.33,3.76-2.42,6.01-3.25
			s4.57-1.48,6.98-1.95c2.41-0.47,4.79-0.8,7.13-0.98c2.34-0.18,4.49-0.28,6.45-0.32v-2.49c0-2.15-0.28-4-0.83-5.57
			c-0.55-1.56-1.33-2.86-2.34-3.88c-1.01-1.03-2.22-1.79-3.64-2.29c-1.42-0.5-2.97-0.76-4.66-0.76c-1.17,0-2.33,0.1-3.47,0.29
			c-1.14,0.2-2.32,0.52-3.54,0.98c-1.22,0.46-2.51,1.07-3.86,1.86c-1.35,0.78-2.81,1.77-4.37,2.98l-0.49-0.29l3.32-6.88
			c1.07-0.49,2.13-0.89,3.17-1.2c1.04-0.31,2.1-0.56,3.17-0.76s2.17-0.33,3.3-0.42c1.12-0.08,2.3-0.12,3.54-0.12
			c3.42,0,6.34,0.42,8.76,1.25c2.42,0.83,4.41,1.97,5.96,3.42c1.55,1.45,2.68,3.14,3.39,5.08c0.72,1.94,1.07,4.01,1.07,6.23v15.92
			c0,2.77,0.04,5.18,0.12,7.25c0.08,2.07,0.18,3.85,0.29,5.35c0.11,1.5,0.26,2.75,0.44,3.76c0.18,1.01,0.37,1.86,0.56,2.54v0.2
			h-10.79v-0.2c0.16-0.52,0.28-1.11,0.37-1.76c0.08-0.65,0.15-1.43,0.22-2.34c-0.68,0.59-1.49,1.19-2.42,1.81
			c-0.93,0.62-1.99,1.18-3.17,1.68c-1.19,0.5-2.51,0.91-3.96,1.22c-1.45,0.31-3.04,0.46-4.76,0.46c-5.66,0-10.04-1.33-13.13-3.98
			C1358.32,313.93,1356.78,310.16,1356.78,305.28z M1389.15,291.07c-2.96,0.03-5.81,0.2-8.54,0.51c-2.73,0.31-5.15,0.95-7.25,1.93
			s-3.78,2.37-5.03,4.17c-1.25,1.81-1.88,4.21-1.88,7.2c0,3.84,0.96,6.77,2.88,8.79c1.92,2.02,4.57,3.03,7.96,3.03
			c1.56,0,2.99-0.22,4.27-0.66c1.29-0.44,2.42-0.99,3.42-1.66c0.99-0.67,1.83-1.4,2.51-2.2c0.68-0.8,1.2-1.57,1.56-2.32
			c0.06-1.24,0.1-2.61,0.1-4.13s0-3.23,0-5.15V291.07z"/>
		<path fill="#348E38" d="M1430.07,316.8c0.98,0,1.94-0.18,2.91-0.54c0.96-0.36,1.89-0.85,2.78-1.46c0.89-0.62,1.76-1.33,2.59-2.12
			c0.83-0.8,1.6-1.64,2.32-2.51l0.49,0.24l-3.17,7.86c-0.39,0.2-0.87,0.43-1.44,0.71c-0.57,0.28-1.25,0.54-2.05,0.78
			c-0.8,0.24-1.73,0.46-2.81,0.63c-1.07,0.18-2.34,0.27-3.81,0.27c-4.36,0-7.76-1.18-10.18-3.54c-2.43-2.36-3.64-6.05-3.64-11.06
			v-32.57l-8.2,0.29v-4.3c1.01,0.07,2.21,0.11,3.61,0.15c1.4,0.03,2.93,0.05,4.59,0.05c-0.03-2.31-0.09-4.35-0.17-6.13
			c-0.08-1.77-0.18-3.32-0.29-4.64c-0.11-1.32-0.25-2.43-0.42-3.34c-0.16-0.91-0.33-1.68-0.49-2.29v-0.2h11.28v0.2
			c-0.2,0.62-0.38,1.38-0.54,2.29c-0.16,0.91-0.3,2.02-0.42,3.32c-0.11,1.3-0.21,2.84-0.29,4.61c-0.08,1.77-0.14,3.83-0.17,6.18
			c2.05-0.03,4.06-0.07,6.03-0.12c1.97-0.05,3.76-0.11,5.37-0.2c1.61-0.08,2.98-0.16,4.1-0.24c1.12-0.08,1.86-0.15,2.22-0.22
			l-0.88,4.98c-1.66-0.03-3.4-0.08-5.22-0.15c-1.56-0.06-3.35-0.11-5.37-0.15c-2.02-0.03-4.1-0.06-6.25-0.1v33.59
			c0,2.02,0.22,3.65,0.66,4.91c0.44,1.25,1.01,2.24,1.71,2.95c0.7,0.72,1.5,1.2,2.39,1.46
			C1428.2,316.67,1429.12,316.8,1430.07,316.8z"/>
		<path fill="#348E38" d="M1458.97,302.59c0,4.3,0.85,7.45,2.56,9.47c1.71,2.02,4.01,3.03,6.91,3.03c1.04,0,2.21-0.22,3.52-0.66
			c1.3-0.44,2.64-1.03,4.03-1.76c1.38-0.73,2.77-1.59,4.15-2.56c1.38-0.98,2.66-2.02,3.83-3.12c0.06-0.94,0.1-1.94,0.1-3
			c0-1.06,0-2.19,0-3.39v-11.82c0-2.77-0.04-5.18-0.12-7.25c-0.08-2.07-0.18-3.85-0.29-5.35c-0.11-1.5-0.26-2.75-0.44-3.76
			c-0.18-1.01-0.37-1.86-0.56-2.54v-0.2h11.28v0.2c-0.2,0.68-0.38,1.53-0.54,2.54c-0.16,1.01-0.31,2.26-0.44,3.76
			c-0.13,1.5-0.23,3.28-0.29,5.35c-0.07,2.07-0.1,4.48-0.1,7.25v11.82c0,2.77,0.03,5.18,0.1,7.25c0.06,2.07,0.16,3.85,0.29,5.35
			c0.13,1.5,0.28,2.75,0.44,3.76c0.16,1.01,0.34,1.86,0.54,2.54v0.2h-11.28v-0.2c0.2-0.81,0.4-1.86,0.61-3.12
			c0.21-1.27,0.37-2.93,0.46-4.98c-1.33,1.14-2.78,2.26-4.32,3.37c-1.55,1.11-3.16,2.1-4.83,2.98c-1.68,0.88-3.37,1.59-5.08,2.12
			s-3.39,0.81-5.05,0.81c-2.54,0-4.7-0.44-6.47-1.32c-1.77-0.88-3.22-2.03-4.35-3.47c-1.12-1.43-1.94-3.06-2.44-4.88
			c-0.5-1.82-0.76-3.69-0.76-5.62v-16.6c0-2.77-0.03-5.18-0.1-7.25c-0.07-2.07-0.16-3.85-0.29-5.35c-0.13-1.5-0.28-2.75-0.44-3.76
			c-0.16-1.01-0.34-1.86-0.54-2.54v-0.2h11.28v0.2c-0.2,0.68-0.38,1.53-0.54,2.54c-0.16,1.01-0.31,2.26-0.44,3.76
			c-0.13,1.5-0.23,3.28-0.29,5.35c-0.07,2.07-0.1,4.48-0.1,7.25V302.59z"/>
		<path fill="#348E38" d="M1507.56,288.77c0-2.77-0.04-5.18-0.12-7.25c-0.08-2.07-0.18-3.85-0.29-5.35
			c-0.11-1.5-0.26-2.75-0.44-3.76c-0.18-1.01-0.37-1.86-0.56-2.54v-0.2h11.28v0.2c-0.26,0.75-0.48,1.66-0.66,2.73
			c-0.18,1.07-0.32,2.46-0.42,4.15c1.2-1.01,2.46-2,3.76-2.98c1.3-0.98,2.64-1.84,4-2.59c1.37-0.75,2.76-1.35,4.17-1.81
			c1.42-0.46,2.84-0.68,4.27-0.68c0.88,0,1.64,0.04,2.29,0.12c0.65,0.08,1.24,0.2,1.76,0.34c0.52,0.15,0.99,0.31,1.42,0.49
			c0.42,0.18,0.83,0.35,1.22,0.51l-2.39,9.33l-0.83-0.2c-0.39-1.43-1.12-2.58-2.2-3.44c-1.07-0.86-2.54-1.29-4.39-1.29
			c-1.01,0-2.07,0.18-3.17,0.54c-1.11,0.36-2.23,0.85-3.37,1.49c-1.14,0.63-2.28,1.37-3.42,2.2c-1.14,0.83-2.25,1.7-3.32,2.61
			c-0.07,0.94-0.1,1.97-0.1,3.08c0,1.11,0,2.28,0,3.52v12.6c0,2.77,0.03,5.18,0.1,7.25c0.06,2.07,0.16,3.85,0.29,5.35
			c0.13,1.5,0.28,2.75,0.44,3.76c0.16,1.01,0.34,1.86,0.54,2.54v0.2h-11.28v-0.2c0.2-0.68,0.38-1.53,0.56-2.54
			c0.18-1.01,0.33-2.26,0.44-3.76c0.11-1.5,0.21-3.28,0.29-5.35c0.08-2.07,0.12-4.48,0.12-7.25V288.77z"/>
		<path fill="#348E38" d="M1540.86,305.28c0-2.57,0.53-4.8,1.59-6.69c1.06-1.89,2.47-3.5,4.22-4.83c1.76-1.33,3.76-2.42,6.01-3.25
			s4.57-1.48,6.98-1.95c2.41-0.47,4.79-0.8,7.13-0.98c2.34-0.18,4.49-0.28,6.45-0.32v-2.49c0-2.15-0.28-4-0.83-5.57
			c-0.55-1.56-1.33-2.86-2.34-3.88c-1.01-1.03-2.22-1.79-3.64-2.29c-1.42-0.5-2.97-0.76-4.66-0.76c-1.17,0-2.33,0.1-3.47,0.29
			c-1.14,0.2-2.32,0.52-3.54,0.98c-1.22,0.46-2.51,1.07-3.86,1.86c-1.35,0.78-2.81,1.77-4.37,2.98l-0.49-0.29l3.32-6.88
			c1.07-0.49,2.13-0.89,3.17-1.2c1.04-0.31,2.1-0.56,3.17-0.76s2.17-0.33,3.3-0.42c1.12-0.08,2.3-0.12,3.54-0.12
			c3.42,0,6.34,0.42,8.76,1.25c2.42,0.83,4.41,1.97,5.96,3.42c1.55,1.45,2.68,3.14,3.39,5.08c0.72,1.94,1.07,4.01,1.07,6.23v15.92
			c0,2.77,0.04,5.18,0.12,7.25c0.08,2.07,0.18,3.85,0.29,5.35c0.11,1.5,0.26,2.75,0.44,3.76c0.18,1.01,0.37,1.86,0.56,2.54v0.2
			h-10.79v-0.2c0.16-0.52,0.28-1.11,0.37-1.76c0.08-0.65,0.15-1.43,0.22-2.34c-0.68,0.59-1.49,1.19-2.42,1.81
			c-0.93,0.62-1.99,1.18-3.17,1.68c-1.19,0.5-2.51,0.91-3.96,1.22c-1.45,0.31-3.04,0.46-4.76,0.46c-5.66,0-10.04-1.33-13.13-3.98
			C1542.41,313.93,1540.86,310.16,1540.86,305.28z M1573.23,291.07c-2.96,0.03-5.81,0.2-8.54,0.51c-2.73,0.31-5.15,0.95-7.25,1.93
			s-3.78,2.37-5.03,4.17c-1.25,1.81-1.88,4.21-1.88,7.2c0,3.84,0.96,6.77,2.88,8.79c1.92,2.02,4.57,3.03,7.96,3.03
			c1.56,0,2.99-0.22,4.27-0.66c1.29-0.44,2.42-0.99,3.42-1.66c0.99-0.67,1.83-1.4,2.51-2.2c0.68-0.8,1.2-1.57,1.56-2.32
			c0.06-1.24,0.1-2.61,0.1-4.13s0-3.23,0-5.15V291.07z"/>
		<path fill="#348E38" d="M1596.77,265.77c0-2.77-0.04-5.18-0.12-7.25c-0.08-2.07-0.18-3.85-0.29-5.35
			c-0.11-1.5-0.26-2.75-0.44-3.76c-0.18-1.01-0.37-1.86-0.56-2.54v-0.2h11.28v0.2c-0.2,0.68-0.38,1.53-0.54,2.54
			c-0.16,1.01-0.31,2.26-0.44,3.76c-0.13,1.5-0.23,3.28-0.29,5.35c-0.07,2.07-0.1,4.48-0.1,7.25v34.81c0,2.77,0.03,5.18,0.1,7.25
			c0.06,2.07,0.16,3.85,0.29,5.35c0.13,1.5,0.28,2.75,0.44,3.76c0.16,1.01,0.34,1.86,0.54,2.54v0.2h-11.28v-0.2
			c0.2-0.68,0.38-1.53,0.56-2.54c0.18-1.01,0.33-2.26,0.44-3.76c0.11-1.5,0.21-3.28,0.29-5.35c0.08-2.07,0.12-4.48,0.12-7.25V265.77
			z"/>
	</g>
</g>
</svg>
